<?xml version="1.0" encoding="utf-8"?>
<!-- Generator: Adobe Illustrator 26.3.1, SVG Export Plug-In . SVG Version: 6.00 Build 0)  -->
<svg version="1.1" id="Layer_1" xmlns="http://www.w3.org/2000/svg" xmlns:xlink="http://www.w3.org/1999/xlink" x="0px" y="0px"
	 viewBox="0 0 16 16" style="enable-background:new 0 0 16 16;" xml:space="preserve">
<style type="text/css">
	.st0{fill:#FF1A1A;}
	.st1{fill:#D60909;}
	.st2{fill:#FFFFFF;}
	.st3{fill:#D8E5EA;}
	.st4{fill:#33363A;}
	.st5{fill:#80949B;}
	.st6{fill:#63797F;}
	.st7{fill:#3E5054;}
</style>
<g>
	<g>
		<circle class="st0" cx="8" cy="8" r="7.8"/>
	</g>
	<g>
		<ellipse class="st1" cx="8" cy="8" rx="7.8" ry="6"/>
	</g>
	<g>
		<path class="st2" d="M0.2,8c0,4.3,3.5,7.8,7.8,7.8c4.3,0,7.8-3.5,7.8-7.8C15.8,8,0.2,8,0.2,8z"/>
	</g>
	<g>
		<path class="st3" d="M8,14c4.3,0,7.8-2.7,7.8-6H0.2C0.2,11.3,3.7,14,8,14z"/>
	</g>
	<g>
		<path class="st4" d="M8,16c-4.4,0-8-3.6-8-8c0-4.4,3.6-8,8-8c4.4,0,8,3.6,8,8C16,12.4,12.4,16,8,16z M8,0.4C3.8,0.4,0.4,3.8,0.4,8
			c0,4.2,3.4,7.6,7.6,7.6c4.2,0,7.6-3.4,7.6-7.6C15.6,3.8,12.2,0.4,8,0.4z"/>
	</g>
	<g>
		<ellipse class="st5" cx="8" cy="8" rx="7.8" ry="2.1"/>
	</g>
	<g>
		<ellipse class="st6" cx="8" cy="8" rx="5.2" ry="1.4"/>
	</g>
	<g>
		<path class="st7" d="M0.2,8c0-1.2,3.5-2.1,7.8-2.1c4.3,0,7.8,1,7.8,2.1"/>
	</g>
	<g>
		<path class="st4" d="M8,10.3c-2.1,0-4.1-0.2-5.6-0.6C1.3,9.4,0,8.8,0,8c0-0.8,1.3-1.4,2.4-1.7C3.9,5.9,5.9,5.7,8,5.7
			c2.1,0,4.1,0.2,5.6,0.6C14.7,6.6,16,7.2,16,8c0,0.8-1.3,1.4-2.4,1.7C12.1,10.1,10.1,10.3,8,10.3z M8,6.1c-4.5,0-7.6,1-7.6,1.9
			S3.5,9.9,8,9.9c4.5,0,7.6-1,7.6-1.9S12.5,6.1,8,6.1z"/>
	</g>
	<g>
		<path class="st4" d="M15.8,8.2H0.2C0.1,8.2,0,8.1,0,8c0-0.1,0.1-0.2,0.2-0.2h15.6C15.9,7.8,16,7.9,16,8C16,8.1,15.9,8.2,15.8,8.2z
			"/>
	</g>
</g>
</svg>
