<?xml version="1.0" encoding="utf-8"?>
<!-- Generator: Adobe Illustrator 26.3.1, SVG Export Plug-In . SVG Version: 6.00 Build 0)  -->
<svg version="1.1" id="Layer_1" xmlns="http://www.w3.org/2000/svg" xmlns:xlink="http://www.w3.org/1999/xlink" x="0px" y="0px"
	 viewBox="0 0 16 16" style="enable-background:new 0 0 16 16;" xml:space="preserve">
<style type="text/css">
	.st0{fill:#FF1A1A;}
	.st1{fill:#D60909;}
	.st2{fill:#FFFFFF;}
	.st3{fill:#D8E5EA;}
	.st4{fill:#33363A;}
	.st5{fill:#A7BBC1;}
</style>
<g>
	<g>
		<circle class="st0" cx="8.1" cy="8" r="7.8"/>
	</g>
	<g>
		<ellipse class="st1" cx="8.1" cy="8" rx="7.8" ry="6"/>
	</g>
	<g>
		<path class="st2" d="M0.3,8c0,4.3,3.5,7.8,7.8,7.8S16,12.3,16,8C16,8,0.3,8,0.3,8z"/>
	</g>
	<g>
		<path class="st3" d="M8.1,14c4.3,0,7.8-2.7,7.8-6H0.3C0.3,11.3,3.8,14,8.1,14z"/>
	</g>
	<g>
		<path class="st4" d="M8.1,16c-4.4,0-8-3.6-8-8c0-4.4,3.6-8,8-8s8,3.6,8,8C16.1,12.4,12.6,16,8.1,16z M8.1,0.4
			C3.9,0.4,0.5,3.8,0.5,8c0,4.2,3.4,7.6,7.6,7.6s7.6-3.4,7.6-7.6C15.8,3.8,12.4,0.4,8.1,0.4z"/>
	</g>
	<g>
		<path class="st4" d="M16,8.2H0.3C0.2,8.2,0.1,8.1,0.1,8c0-0.1,0.1-0.2,0.2-0.2H16c0.1,0,0.2,0.1,0.2,0.2C16.1,8.1,16.1,8.2,16,8.2
			z"/>
	</g>
	<g>
		<g>
			<circle class="st5" cx="8.1" cy="8.7" r="2.1"/>
		</g>
		<g>
			<circle class="st2" cx="8.1" cy="8" r="2.1"/>
		</g>
		<g>
			<path class="st3" d="M6.6,9.5c-0.8-0.8-0.8-2.2,0-3c0.8-0.8,2.2-0.8,3,0"/>
		</g>
		<g>
			<path class="st4" d="M8.1,10.3c-0.6,0-1.2-0.2-1.6-0.7c-0.9-0.9-0.9-2.4,0-3.3c0.4-0.4,1-0.7,1.6-0.7s1.2,0.2,1.6,0.7
				c0.4,0.4,0.7,1,0.7,1.6s-0.2,1.2-0.7,1.6C9.3,10.1,8.8,10.3,8.1,10.3z M8.1,6.1c-0.5,0-1,0.2-1.4,0.6C6,7.4,6,8.6,6.8,9.4
				c0.4,0.4,0.9,0.6,1.4,0.6c0.5,0,1-0.2,1.4-0.6C9.9,9,10.1,8.5,10.1,8c0-0.5-0.2-1-0.6-1.4C9.2,6.3,8.7,6.1,8.1,6.1z"/>
		</g>
	</g>
	<g>
		<g>
			<path class="st2" d="M8.9,8.7c-0.4,0.4-1,0.4-1.4,0C7,8.3,7,7.7,7.4,7.3c0.4-0.4,1-0.4,1.4,0C9.3,7.7,9.3,8.3,8.9,8.7z"/>
		</g>
		<g>
			<path class="st3" d="M7.4,7.3c0.4-0.4,1-0.4,1.4,0s0.4,1,0,1.4"/>
		</g>
		<g>
			<path class="st4" d="M8.1,9.2c-0.3,0-0.6-0.1-0.9-0.4c-0.5-0.5-0.5-1.2,0-1.7c0.2-0.2,0.5-0.4,0.9-0.4c0.3,0,0.6,0.1,0.9,0.4
				c0.5,0.5,0.5,1.2,0,1.7C8.8,9.1,8.5,9.2,8.1,9.2z M8.1,7.2c-0.2,0-0.4,0.1-0.6,0.2c-0.3,0.3-0.3,0.9,0,1.2
				c0.2,0.2,0.4,0.2,0.6,0.2c0.2,0,0.4-0.1,0.6-0.2c0.3-0.3,0.3-0.9,0-1.2C8.6,7.3,8.4,7.2,8.1,7.2z"/>
		</g>
	</g>
</g>
</svg>
